<svg xmlns="http://www.w3.org/2000/svg" viewBox="0 0 287.99 84"><defs><style>.cls-1{fill:#e30613;}</style></defs><title>Asset 2</title><g id="Layer_2" data-name="Layer 2"><g id="Layer_1-2" data-name="Layer 1"><path class="cls-1" d="M16.78,40.66h-.24q0,29.76-.05,59.54c-4.72.68-7.09,1-11.81,1.79V18H21.24q6.51,23.91,13.24,47.76l.24,0q0-23.86.08-47.74H46.56q-.08,39.18-.16,78.37C41,97,38.28,97.29,32.87,98Q24.65,69.38,16.78,40.66Z" transform="translate(-4.68 -18)"/><path class="cls-1" d="M69.17,50.08c7.24-.27,10.87-.38,18.12-.59,0,4.27,0,6.41,0,10.68-7.25.27-10.88.43-18.13.78l0,22.29c9.12-.68,13.69-1,22.82-1.45l0,10.63q-18,1.11-36,2.94Q56,56.67,56,18H92c0,4.25,0,6.38,0,10.63-9.13.08-13.69.13-22.81.25C69.19,37.36,69.18,41.6,69.17,50.08Z" transform="translate(-4.68 -18)"/><path class="cls-1" d="M96.36,18h40.8c0,4.16,0,6.24,0,10.39l-13.8,0q0,31.29-.07,62.59c-5.29.14-7.94.23-13.23.46l.09-63c-5.52,0-8.28.05-13.8.1C96.35,24.36,96.35,22.24,96.36,18Z" transform="translate(-4.68 -18)"/><path class="cls-1" d="M156.13,50.3c6.82,0,10.23.05,17.06.13V60.86c-6.83-.11-10.24-.14-17.07-.18q0,15,0,30c-5.3,0-7.95,0-13.24,0q0-36.33,0-72.68h34.91c0,4.18,0,6.27,0,10.45-8.69,0-13-.05-21.73-.06C156.12,37.15,156.12,41.53,156.13,50.3Z" transform="translate(-4.68 -18)"/><path class="cls-1" d="M184.2,18h13.19l.12,63.4c8.7.39,13.05.64,21.75,1.21,0,4.31,0,6.46,0,10.77q-17.47-1.35-35-2Q184.24,54.67,184.2,18Z" transform="translate(-4.68 -18)"/><path class="cls-1" d="M224.87,18h13.2q.09,38.52.17,77c-5.27-.51-7.91-.75-13.2-1.19Q225,55.92,224.87,18Z" transform="translate(-4.68 -18)"/><path class="cls-1" d="M291.71,18Q284.93,37.91,278,57.73q7.51,22.08,14.72,44.27c-5.53-.88-8.3-1.29-13.84-2.09q-5.28-16.66-10.69-33.29l-.24,0c-3.54,10.17-7.09,20.34-10.72,30.48-4.94-.58-7.4-.86-12.34-1.38q7.46-19.53,14.66-39.15Q252.71,37.23,245.63,18h13.68q5,14.84,9.88,29.71h.24q5.1-14.83,10-29.72Z" transform="translate(-4.68 -18)"/></g></g></svg>